<?xml version="1.0" standalone="no"?><!DOCTYPE svg PUBLIC "-//W3C//DTD SVG 1.1//EN" "http://www.w3.org/Graphics/SVG/1.1/DTD/svg11.dtd"><svg height="136" node-id="1" sillyvg="true" template-height="136" template-width="136" version="1.1" viewBox="0 0 136 136" width="136" xmlns="http://www.w3.org/2000/svg" xmlns:xlink="http://www.w3.org/1999/xlink"><defs node-id="37"><linearGradient gradientUnits="objectBoundingBox" id="linearGradient-3" node-id="6" spreadMethod="pad" x1="0.5" x2="0.5" y1="0" y2="1"><stop offset="0" stop-color="#424242"></stop><stop offset="1" stop-color="#151115"></stop></linearGradient><mask height="22.906055" id="mask-2" maskUnits="userSpaceOnUse" node-id="12" width="23.133553" x="55.950653" y="60.826046"><path d="M 136.00 68.00 L 135.80 73.60 L 135.10 79.10 L 134.00 84.40 L 132.50 89.50 L 130.60 94.50 L 128.40 99.30 L 125.80 103.80 L 122.90 108.20 L 116.10 116.10 L 108.20 122.90 L 103.80 125.80 L 99.30 128.40 L 94.50 130.60 L 89.50 132.50 L 84.40 134.00 L 79.10 135.10 L 73.60 135.80 L 68.00 136.00 L 62.40 135.80 L 56.90 135.10 L 51.60 134.00 L 46.50 132.50 L 41.50 130.60 L 36.70 128.40 L 32.20 125.80 L 27.80 122.90 L 19.90 116.10 L 13.10 108.20 L 10.20 103.80 L 7.60 99.30 L 5.40 94.50 L 3.50 89.50 L 2.00 84.40 L 0.90 79.10 L 0.20 73.60 L 0.00 68.00 L 0.20 62.40 L 0.90 56.90 L 2.00 51.60 L 3.50 46.50 L 5.40 41.50 L 7.60 36.70 L 10.20 32.20 L 13.10 27.80 L 19.90 19.90 L 27.80 13.10 L 32.20 10.20 L 36.70 7.60 L 41.50 5.40 L 46.50 3.50 L 51.60 2.00 L 56.90 0.90 L 62.40 0.20 L 68.00 0.00 L 73.60 0.20 L 79.10 0.90 L 84.40 2.00 L 89.50 3.50 L 94.50 5.40 L 99.30 7.60 L 103.80 10.20 L 108.20 13.10 L 116.10 19.90 L 122.90 27.80 L 125.80 32.20 L 128.40 36.70 L 130.60 41.50 L 132.50 46.50 L 134.00 51.60 L 135.10 56.90 L 135.80 62.40 L 136.00 68.00 Z" fill="#ffffff" fill-rule="evenodd" node-id="48" stroke="none" target-height="136" target-width="136" target-x="0" target-y="0"></path></mask><mask height="64.799995" id="mask1" maskUnits="userSpaceOnUse" node-id="52" width="120" x="9" y="78.6"><path d="M 136.00 68.00 L 135.80 73.60 L 135.10 79.10 L 134.00 84.40 L 132.50 89.50 L 130.60 94.50 L 128.40 99.30 L 125.80 103.80 L 122.90 108.20 L 116.10 116.10 L 108.20 122.90 L 103.80 125.80 L 99.30 128.40 L 94.50 130.60 L 89.50 132.50 L 84.40 134.00 L 79.10 135.10 L 73.60 135.80 L 68.00 136.00 L 62.40 135.80 L 56.90 135.10 L 51.60 134.00 L 46.50 132.50 L 41.50 130.60 L 36.70 128.40 L 32.20 125.80 L 27.80 122.90 L 19.90 116.10 L 13.10 108.20 L 10.20 103.80 L 7.60 99.30 L 5.40 94.50 L 3.50 89.50 L 2.00 84.40 L 0.90 79.10 L 0.20 73.60 L 0.00 68.00 L 0.20 62.40 L 0.90 56.90 L 2.00 51.60 L 3.50 46.50 L 5.40 41.50 L 7.60 36.70 L 10.20 32.20 L 13.10 27.80 L 19.90 19.90 L 27.80 13.10 L 32.20 10.20 L 36.70 7.60 L 41.50 5.40 L 46.50 3.50 L 51.60 2.00 L 56.90 0.90 L 62.40 0.20 L 68.00 0.00 L 73.60 0.20 L 79.10 0.90 L 84.40 2.00 L 89.50 3.50 L 94.50 5.40 L 99.30 7.60 L 103.80 10.20 L 108.20 13.10 L 116.10 19.90 L 122.90 27.80 L 125.80 32.20 L 128.40 36.70 L 130.60 41.50 L 132.50 46.50 L 134.00 51.60 L 135.10 56.90 L 135.80 62.40 L 136.00 68.00 Z" fill="#ffffff" fill-rule="evenodd" node-id="56" stroke="none" target-height="136" target-width="136" target-x="0" target-y="0"></path></mask><mask height="75.44165" id="mask2" maskUnits="userSpaceOnUse" node-id="60" width="93.600006" x="22.2" y="68.84515"><path d="M 136.00 68.00 L 135.80 73.60 L 135.10 79.10 L 134.00 84.40 L 132.50 89.50 L 130.60 94.50 L 128.40 99.30 L 125.80 103.80 L 122.90 108.20 L 116.10 116.10 L 108.20 122.90 L 103.80 125.80 L 99.30 128.40 L 94.50 130.60 L 89.50 132.50 L 84.40 134.00 L 79.10 135.10 L 73.60 135.80 L 68.00 136.00 L 62.40 135.80 L 56.90 135.10 L 51.60 134.00 L 46.50 132.50 L 41.50 130.60 L 36.70 128.40 L 32.20 125.80 L 27.80 122.90 L 19.90 116.10 L 13.10 108.20 L 10.20 103.80 L 7.60 99.30 L 5.40 94.50 L 3.50 89.50 L 2.00 84.40 L 0.90 79.10 L 0.20 73.60 L 0.00 68.00 L 0.20 62.40 L 0.90 56.90 L 2.00 51.60 L 3.50 46.50 L 5.40 41.50 L 7.60 36.70 L 10.20 32.20 L 13.10 27.80 L 19.90 19.90 L 27.80 13.10 L 32.20 10.20 L 36.70 7.60 L 41.50 5.40 L 46.50 3.50 L 51.60 2.00 L 56.90 0.90 L 62.40 0.20 L 68.00 0.00 L 73.60 0.20 L 79.10 0.90 L 84.40 2.00 L 89.50 3.50 L 94.50 5.40 L 99.30 7.60 L 103.80 10.20 L 108.20 13.10 L 116.10 19.90 L 122.90 27.80 L 125.80 32.20 L 128.40 36.70 L 130.60 41.50 L 132.50 46.50 L 134.00 51.60 L 135.10 56.90 L 135.80 62.40 L 136.00 68.00 Z" fill="#ffffff" fill-rule="evenodd" node-id="64" stroke="none" target-height="136" target-width="136" target-x="0" target-y="0"></path></mask><mask height="34.799995" id="mask3" maskUnits="userSpaceOnUse" node-id="68" width="93.600006" x="22.2" y="104.1"><path d="M 136.00 68.00 L 135.80 73.60 L 135.10 79.10 L 134.00 84.40 L 132.50 89.50 L 130.60 94.50 L 128.40 99.30 L 125.80 103.80 L 122.90 108.20 L 116.10 116.10 L 108.20 122.90 L 103.80 125.80 L 99.30 128.40 L 94.50 130.60 L 89.50 132.50 L 84.40 134.00 L 79.10 135.10 L 73.60 135.80 L 68.00 136.00 L 62.40 135.80 L 56.90 135.10 L 51.60 134.00 L 46.50 132.50 L 41.50 130.60 L 36.70 128.40 L 32.20 125.80 L 27.80 122.90 L 19.90 116.10 L 13.10 108.20 L 10.20 103.80 L 7.60 99.30 L 5.40 94.50 L 3.50 89.50 L 2.00 84.40 L 0.90 79.10 L 0.20 73.60 L 0.00 68.00 L 0.20 62.40 L 0.90 56.90 L 2.00 51.60 L 3.50 46.50 L 5.40 41.50 L 7.60 36.70 L 10.20 32.20 L 13.10 27.80 L 19.90 19.90 L 27.80 13.10 L 32.20 10.20 L 36.70 7.60 L 41.50 5.40 L 46.50 3.50 L 51.60 2.00 L 56.90 0.90 L 62.40 0.20 L 68.00 0.00 L 73.60 0.20 L 79.10 0.90 L 84.40 2.00 L 89.50 3.50 L 94.50 5.40 L 99.30 7.60 L 103.80 10.20 L 108.20 13.10 L 116.10 19.90 L 122.90 27.80 L 125.80 32.20 L 128.40 36.70 L 130.60 41.50 L 132.50 46.50 L 134.00 51.60 L 135.10 56.90 L 135.80 62.40 L 136.00 68.00 Z" fill="#ffffff" fill-rule="evenodd" node-id="72" stroke="none" target-height="136" target-width="136" target-x="0" target-y="0"></path></mask><mask height="3.5999985" id="mask4" maskUnits="userSpaceOnUse" node-id="76" width="20.400002" x="84.3" y="99.7"><path d="M 136.00 68.00 L 135.80 73.60 L 135.10 79.10 L 134.00 84.40 L 132.50 89.50 L 130.60 94.50 L 128.40 99.30 L 125.80 103.80 L 122.90 108.20 L 116.10 116.10 L 108.20 122.90 L 103.80 125.80 L 99.30 128.40 L 94.50 130.60 L 89.50 132.50 L 84.40 134.00 L 79.10 135.10 L 73.60 135.80 L 68.00 136.00 L 62.40 135.80 L 56.90 135.10 L 51.60 134.00 L 46.50 132.50 L 41.50 130.60 L 36.70 128.40 L 32.20 125.80 L 27.80 122.90 L 19.90 116.10 L 13.10 108.20 L 10.20 103.80 L 7.60 99.30 L 5.40 94.50 L 3.50 89.50 L 2.00 84.40 L 0.90 79.10 L 0.20 73.60 L 0.00 68.00 L 0.20 62.40 L 0.90 56.90 L 2.00 51.60 L 3.50 46.50 L 5.40 41.50 L 7.60 36.70 L 10.20 32.20 L 13.10 27.80 L 19.90 19.90 L 27.80 13.10 L 32.20 10.20 L 36.70 7.60 L 41.50 5.40 L 46.50 3.50 L 51.60 2.00 L 56.90 0.90 L 62.40 0.20 L 68.00 0.00 L 73.60 0.20 L 79.10 0.90 L 84.40 2.00 L 89.50 3.50 L 94.50 5.40 L 99.30 7.60 L 103.80 10.20 L 108.20 13.10 L 116.10 19.90 L 122.90 27.80 L 125.80 32.20 L 128.40 36.70 L 130.60 41.50 L 132.50 46.50 L 134.00 51.60 L 135.10 56.90 L 135.80 62.40 L 136.00 68.00 Z" fill="#ffffff" fill-rule="evenodd" node-id="80" stroke="none" target-height="136" target-width="136" target-x="0" target-y="0"></path></mask><mask height="64.799995" id="mask5" maskUnits="userSpaceOnUse" node-id="84" width="1.199997" x="70.9" y="78.6"><path d="M 136.00 68.00 L 135.80 73.60 L 135.10 79.10 L 134.00 84.40 L 132.50 89.50 L 130.60 94.50 L 128.40 99.30 L 125.80 103.80 L 122.90 108.20 L 116.10 116.10 L 108.20 122.90 L 103.80 125.80 L 99.30 128.40 L 94.50 130.60 L 89.50 132.50 L 84.40 134.00 L 79.10 135.10 L 73.60 135.80 L 68.00 136.00 L 62.40 135.80 L 56.90 135.10 L 51.60 134.00 L 46.50 132.50 L 41.50 130.60 L 36.70 128.40 L 32.20 125.80 L 27.80 122.90 L 19.90 116.10 L 13.10 108.20 L 10.20 103.80 L 7.60 99.30 L 5.40 94.50 L 3.50 89.50 L 2.00 84.40 L 0.90 79.10 L 0.20 73.60 L 0.00 68.00 L 0.20 62.40 L 0.90 56.90 L 2.00 51.60 L 3.50 46.50 L 5.40 41.50 L 7.60 36.70 L 10.20 32.20 L 13.10 27.80 L 19.90 19.90 L 27.80 13.10 L 32.20 10.20 L 36.70 7.60 L 41.50 5.40 L 46.50 3.50 L 51.60 2.00 L 56.90 0.90 L 62.40 0.20 L 68.00 0.00 L 73.60 0.20 L 79.10 0.90 L 84.40 2.00 L 89.50 3.50 L 94.50 5.40 L 99.30 7.60 L 103.80 10.20 L 108.20 13.10 L 116.10 19.90 L 122.90 27.80 L 125.80 32.20 L 128.40 36.70 L 130.60 41.50 L 132.50 46.50 L 134.00 51.60 L 135.10 56.90 L 135.80 62.40 L 136.00 68.00 Z" fill="#ffffff" fill-rule="evenodd" node-id="88" stroke="none" target-height="136" target-width="136" target-x="0" target-y="0"></path></mask><mask height="75.44165" id="mask6" maskUnits="userSpaceOnUse" node-id="92" width="43.722416" x="46.13879" y="68.84515"><path d="M 136.00 68.00 L 135.80 73.60 L 135.10 79.10 L 134.00 84.40 L 132.50 89.50 L 130.60 94.50 L 128.40 99.30 L 125.80 103.80 L 122.90 108.20 L 116.10 116.10 L 108.20 122.90 L 103.80 125.80 L 99.30 128.40 L 94.50 130.60 L 89.50 132.50 L 84.40 134.00 L 79.10 135.10 L 73.60 135.80 L 68.00 136.00 L 62.40 135.80 L 56.90 135.10 L 51.60 134.00 L 46.50 132.50 L 41.50 130.60 L 36.70 128.40 L 32.20 125.80 L 27.80 122.90 L 19.90 116.10 L 13.10 108.20 L 10.20 103.80 L 7.60 99.30 L 5.40 94.50 L 3.50 89.50 L 2.00 84.40 L 0.90 79.10 L 0.20 73.60 L 0.00 68.00 L 0.20 62.40 L 0.90 56.90 L 2.00 51.60 L 3.50 46.50 L 5.40 41.50 L 7.60 36.70 L 10.20 32.20 L 13.10 27.80 L 19.90 19.90 L 27.80 13.10 L 32.20 10.20 L 36.70 7.60 L 41.50 5.40 L 46.50 3.50 L 51.60 2.00 L 56.90 0.90 L 62.40 0.20 L 68.00 0.00 L 73.60 0.20 L 79.10 0.90 L 84.40 2.00 L 89.50 3.50 L 94.50 5.40 L 99.30 7.60 L 103.80 10.20 L 108.20 13.10 L 116.10 19.90 L 122.90 27.80 L 125.80 32.20 L 128.40 36.70 L 130.60 41.50 L 132.50 46.50 L 134.00 51.60 L 135.10 56.90 L 135.80 62.40 L 136.00 68.00 Z" fill="#ffffff" fill-rule="evenodd" node-id="96" stroke="none" target-height="136" target-width="136" target-x="0" target-y="0"></path></mask><mask height="4.800003" id="mask7" maskUnits="userSpaceOnUse" node-id="100" width="4.800003" x="65.6" y="86.6"><path d="M 136.00 68.00 L 135.80 73.60 L 135.10 79.10 L 134.00 84.40 L 132.50 89.50 L 130.60 94.50 L 128.40 99.30 L 125.80 103.80 L 122.90 108.20 L 116.10 116.10 L 108.20 122.90 L 103.80 125.80 L 99.30 128.40 L 94.50 130.60 L 89.50 132.50 L 84.40 134.00 L 79.10 135.10 L 73.60 135.80 L 68.00 136.00 L 62.40 135.80 L 56.90 135.10 L 51.60 134.00 L 46.50 132.50 L 41.50 130.60 L 36.70 128.40 L 32.20 125.80 L 27.80 122.90 L 19.90 116.10 L 13.10 108.20 L 10.20 103.80 L 7.60 99.30 L 5.40 94.50 L 3.50 89.50 L 2.00 84.40 L 0.90 79.10 L 0.20 73.60 L 0.00 68.00 L 0.20 62.40 L 0.90 56.90 L 2.00 51.60 L 3.50 46.50 L 5.40 41.50 L 7.60 36.70 L 10.20 32.20 L 13.10 27.80 L 19.90 19.90 L 27.80 13.10 L 32.20 10.20 L 36.70 7.60 L 41.50 5.40 L 46.50 3.50 L 51.60 2.00 L 56.90 0.90 L 62.40 0.20 L 68.00 0.00 L 73.60 0.20 L 79.10 0.90 L 84.40 2.00 L 89.50 3.50 L 94.50 5.40 L 99.30 7.60 L 103.80 10.20 L 108.20 13.10 L 116.10 19.90 L 122.90 27.80 L 125.80 32.20 L 128.40 36.70 L 130.60 41.50 L 132.50 46.50 L 134.00 51.60 L 135.10 56.90 L 135.80 62.40 L 136.00 68.00 Z" fill="#ffffff" fill-rule="evenodd" node-id="104" stroke="none" target-height="136" target-width="136" target-x="0" target-y="0"></path></mask><mask height="4.800003" id="mask8" maskUnits="userSpaceOnUse" node-id="108" width="4.800003" x="65.6" y="118.6"><path d="M 136.00 68.00 L 135.80 73.60 L 135.10 79.10 L 134.00 84.40 L 132.50 89.50 L 130.60 94.50 L 128.40 99.30 L 125.80 103.80 L 122.90 108.20 L 116.10 116.10 L 108.20 122.90 L 103.80 125.80 L 99.30 128.40 L 94.50 130.60 L 89.50 132.50 L 84.40 134.00 L 79.10 135.10 L 73.60 135.80 L 68.00 136.00 L 62.40 135.80 L 56.90 135.10 L 51.60 134.00 L 46.50 132.50 L 41.50 130.60 L 36.70 128.40 L 32.20 125.80 L 27.80 122.90 L 19.90 116.10 L 13.10 108.20 L 10.20 103.80 L 7.60 99.30 L 5.40 94.50 L 3.50 89.50 L 2.00 84.40 L 0.90 79.10 L 0.20 73.60 L 0.00 68.00 L 0.20 62.40 L 0.90 56.90 L 2.00 51.60 L 3.50 46.50 L 5.40 41.50 L 7.60 36.70 L 10.20 32.20 L 13.10 27.80 L 19.90 19.90 L 27.80 13.10 L 32.20 10.20 L 36.70 7.60 L 41.50 5.40 L 46.50 3.50 L 51.60 2.00 L 56.90 0.90 L 62.40 0.20 L 68.00 0.00 L 73.60 0.20 L 79.10 0.90 L 84.40 2.00 L 89.50 3.50 L 94.50 5.40 L 99.30 7.60 L 103.80 10.20 L 108.20 13.10 L 116.10 19.90 L 122.90 27.80 L 125.80 32.20 L 128.40 36.70 L 130.60 41.50 L 132.50 46.50 L 134.00 51.60 L 135.10 56.90 L 135.80 62.40 L 136.00 68.00 Z" fill="#ffffff" fill-rule="evenodd" node-id="112" stroke="none" target-height="136" target-width="136" target-x="0" target-y="0"></path></mask><mask height="14.400002" id="mask9" maskUnits="userSpaceOnUse" node-id="116" width="48.000004" x="44.157207" y="32.423256"><path d="M 136.00 68.00 L 135.80 73.60 L 135.10 79.10 L 134.00 84.40 L 132.50 89.50 L 130.60 94.50 L 128.40 99.30 L 125.80 103.80 L 122.90 108.20 L 116.10 116.10 L 108.20 122.90 L 103.80 125.80 L 99.30 128.40 L 94.50 130.60 L 89.50 132.50 L 84.40 134.00 L 79.10 135.10 L 73.60 135.80 L 68.00 136.00 L 62.40 135.80 L 56.90 135.10 L 51.60 134.00 L 46.50 132.50 L 41.50 130.60 L 36.70 128.40 L 32.20 125.80 L 27.80 122.90 L 19.90 116.10 L 13.10 108.20 L 10.20 103.80 L 7.60 99.30 L 5.40 94.50 L 3.50 89.50 L 2.00 84.40 L 0.90 79.10 L 0.20 73.60 L 0.00 68.00 L 0.20 62.40 L 0.90 56.90 L 2.00 51.60 L 3.50 46.50 L 5.40 41.50 L 7.60 36.70 L 10.20 32.20 L 13.10 27.80 L 19.90 19.90 L 27.80 13.10 L 32.20 10.20 L 36.70 7.60 L 41.50 5.40 L 46.50 3.50 L 51.60 2.00 L 56.90 0.90 L 62.40 0.20 L 68.00 0.00 L 73.60 0.20 L 79.10 0.90 L 84.40 2.00 L 89.50 3.50 L 94.50 5.40 L 99.30 7.60 L 103.80 10.20 L 108.20 13.10 L 116.10 19.90 L 122.90 27.80 L 125.80 32.20 L 128.40 36.70 L 130.60 41.50 L 132.50 46.50 L 134.00 51.60 L 135.10 56.90 L 135.80 62.40 L 136.00 68.00 Z" fill="#ffffff" fill-rule="evenodd" node-id="120" stroke="none" target-height="136" target-width="136" target-x="0" target-y="0"></path></mask><mask height="21.76186" id="mask10" maskUnits="userSpaceOnUse" node-id="124" width="40.078884" x="44.418232" y="25.674885"><path d="M 136.00 68.00 L 135.80 73.60 L 135.10 79.10 L 134.00 84.40 L 132.50 89.50 L 130.60 94.50 L 128.40 99.30 L 125.80 103.80 L 122.90 108.20 L 116.10 116.10 L 108.20 122.90 L 103.80 125.80 L 99.30 128.40 L 94.50 130.60 L 89.50 132.50 L 84.40 134.00 L 79.10 135.10 L 73.60 135.80 L 68.00 136.00 L 62.40 135.80 L 56.90 135.10 L 51.60 134.00 L 46.50 132.50 L 41.50 130.60 L 36.70 128.40 L 32.20 125.80 L 27.80 122.90 L 19.90 116.10 L 13.10 108.20 L 10.20 103.80 L 7.60 99.30 L 5.40 94.50 L 3.50 89.50 L 2.00 84.40 L 0.90 79.10 L 0.20 73.60 L 0.00 68.00 L 0.20 62.40 L 0.90 56.90 L 2.00 51.60 L 3.50 46.50 L 5.40 41.50 L 7.60 36.70 L 10.20 32.20 L 13.10 27.80 L 19.90 19.90 L 27.80 13.10 L 32.20 10.20 L 36.70 7.60 L 41.50 5.40 L 46.50 3.50 L 51.60 2.00 L 56.90 0.90 L 62.40 0.20 L 68.00 0.00 L 73.60 0.20 L 79.10 0.90 L 84.40 2.00 L 89.50 3.50 L 94.50 5.40 L 99.30 7.60 L 103.80 10.20 L 108.20 13.10 L 116.10 19.90 L 122.90 27.80 L 125.80 32.20 L 128.40 36.70 L 130.60 41.50 L 132.50 46.50 L 134.00 51.60 L 135.10 56.90 L 135.80 62.40 L 136.00 68.00 Z" fill="#ffffff" fill-rule="evenodd" node-id="128" stroke="none" target-height="136" target-width="136" target-x="0" target-y="0"></path></mask><mask height="12.055817" id="mask11" maskUnits="userSpaceOnUse" node-id="132" width="60.725586" x="37.637207" y="37.604652"><path d="M 136.00 68.00 L 135.80 73.60 L 135.10 79.10 L 134.00 84.40 L 132.50 89.50 L 130.60 94.50 L 128.40 99.30 L 125.80 103.80 L 122.90 108.20 L 116.10 116.10 L 108.20 122.90 L 103.80 125.80 L 99.30 128.40 L 94.50 130.60 L 89.50 132.50 L 84.40 134.00 L 79.10 135.10 L 73.60 135.80 L 68.00 136.00 L 62.40 135.80 L 56.90 135.10 L 51.60 134.00 L 46.50 132.50 L 41.50 130.60 L 36.70 128.40 L 32.20 125.80 L 27.80 122.90 L 19.90 116.10 L 13.10 108.20 L 10.20 103.80 L 7.60 99.30 L 5.40 94.50 L 3.50 89.50 L 2.00 84.40 L 0.90 79.10 L 0.20 73.60 L 0.00 68.00 L 0.20 62.40 L 0.90 56.90 L 2.00 51.60 L 3.50 46.50 L 5.40 41.50 L 7.60 36.70 L 10.20 32.20 L 13.10 27.80 L 19.90 19.90 L 27.80 13.10 L 32.20 10.20 L 36.70 7.60 L 41.50 5.40 L 46.50 3.50 L 51.60 2.00 L 56.90 0.90 L 62.40 0.20 L 68.00 0.00 L 73.60 0.20 L 79.10 0.90 L 84.40 2.00 L 89.50 3.50 L 94.50 5.40 L 99.30 7.60 L 103.80 10.20 L 108.20 13.10 L 116.10 19.90 L 122.90 27.80 L 125.80 32.20 L 128.40 36.70 L 130.60 41.50 L 132.50 46.50 L 134.00 51.60 L 135.10 56.90 L 135.80 62.40 L 136.00 68.00 Z" fill="#ffffff" fill-rule="evenodd" node-id="136" stroke="none" target-height="136" target-width="136" target-x="0" target-y="0"></path></mask><mask height="12.055817" id="mask12" maskUnits="userSpaceOnUse" node-id="140" width="12.145111" x="78.12093" y="37.604652"><path d="M 32.40 68.00 L 32.60 73.60 L 33.30 79.10 L 34.40 84.40 L 35.90 89.50 L 37.70 94.50 L 40.00 99.30 L 42.60 103.80 L 45.50 108.20 L 52.30 116.10 L 60.20 122.90 L 64.60 125.80 L 69.10 128.40 L 73.90 130.60 L 78.90 132.50 L 84.00 134.00 L 89.30 135.10 L 94.70 135.80 L 100.40 136.00 L 106.00 135.80 L 111.50 135.10 L 116.80 134.00 L 121.90 132.50 L 126.90 130.60 L 131.70 128.40 L 136.20 125.80 L 140.50 122.90 L 148.50 116.10 L 155.30 108.20 L 158.20 103.80 L 160.80 99.30 L 163.00 94.50 L 164.90 89.50 L 166.40 84.40 L 167.50 79.10 L 168.10 73.60 L 168.40 68.00 L 168.10 62.40 L 167.50 56.90 L 166.40 51.60 L 164.90 46.50 L 163.00 41.50 L 160.80 36.70 L 158.20 32.20 L 155.30 27.80 L 148.50 19.90 L 140.50 13.10 L 136.20 10.20 L 131.70 7.60 L 126.90 5.40 L 121.90 3.50 L 116.80 2.00 L 111.50 0.90 L 106.00 0.20 L 100.40 0.00 L 94.70 0.20 L 89.30 0.90 L 84.00 2.00 L 78.90 3.50 L 73.90 5.40 L 69.10 7.60 L 64.60 10.20 L 60.20 13.10 L 52.30 19.90 L 45.50 27.80 L 42.60 32.20 L 40.00 36.70 L 37.70 41.50 L 35.90 46.50 L 34.40 51.60 L 33.30 56.90 L 32.60 62.40 L 32.40 68.00 Z" fill="#ffffff" fill-rule="evenodd" node-id="144" stroke="none" target-height="136" target-width="136" target-x="32.4" target-y="0"></path></mask><mask height="12.055817" id="mask13" maskUnits="userSpaceOnUse" node-id="148" width="12.145115" x="45.733955" y="37.604652"><path d="M 136.00 68.00 L 135.80 73.60 L 135.10 79.10 L 134.00 84.40 L 132.50 89.50 L 130.60 94.50 L 128.40 99.30 L 125.80 103.80 L 122.90 108.20 L 116.10 116.10 L 108.20 122.90 L 103.80 125.80 L 99.30 128.40 L 94.50 130.60 L 89.50 132.50 L 84.40 134.00 L 79.10 135.10 L 73.60 135.80 L 68.00 136.00 L 62.40 135.80 L 56.90 135.10 L 51.60 134.00 L 46.50 132.50 L 41.50 130.60 L 36.70 128.40 L 32.20 125.80 L 27.80 122.90 L 19.90 116.10 L 13.10 108.20 L 10.20 103.80 L 7.60 99.30 L 5.40 94.50 L 3.50 89.50 L 2.00 84.40 L 0.90 79.10 L 0.20 73.60 L 0.00 68.00 L 0.20 62.40 L 0.90 56.90 L 2.00 51.60 L 3.50 46.50 L 5.40 41.50 L 7.60 36.70 L 10.20 32.20 L 13.10 27.80 L 19.90 19.90 L 27.80 13.10 L 32.20 10.20 L 36.70 7.60 L 41.50 5.40 L 46.50 3.50 L 51.60 2.00 L 56.90 0.90 L 62.40 0.20 L 68.00 0.00 L 73.60 0.20 L 79.10 0.90 L 84.40 2.00 L 89.50 3.50 L 94.50 5.40 L 99.30 7.60 L 103.80 10.20 L 108.20 13.10 L 116.10 19.90 L 122.90 27.80 L 125.80 32.20 L 128.40 36.70 L 130.60 41.50 L 132.50 46.50 L 134.00 51.60 L 135.10 56.90 L 135.80 62.40 L 136.00 68.00 Z" fill="#ffffff" fill-rule="evenodd" node-id="152" stroke="none" target-height="136" target-width="136" target-x="0" target-y="0"></path></mask><mask height="57.867912" id="mask14" maskUnits="userSpaceOnUse" node-id="156" width="41.293396" x="47.353302" y="15.717209"><path d="M 136.00 68.00 L 135.80 73.60 L 135.10 79.10 L 134.00 84.40 L 132.50 89.50 L 130.60 94.50 L 128.40 99.30 L 125.80 103.80 L 122.90 108.20 L 116.10 116.10 L 108.20 122.90 L 103.80 125.80 L 99.30 128.40 L 94.50 130.60 L 89.50 132.50 L 84.40 134.00 L 79.10 135.10 L 73.60 135.80 L 68.00 136.00 L 62.40 135.80 L 56.90 135.10 L 51.60 134.00 L 46.50 132.50 L 41.50 130.60 L 36.70 128.40 L 32.20 125.80 L 27.80 122.90 L 19.90 116.10 L 13.10 108.20 L 10.20 103.80 L 7.60 99.30 L 5.40 94.50 L 3.50 89.50 L 2.00 84.40 L 0.90 79.10 L 0.20 73.60 L 0.00 68.00 L 0.20 62.40 L 0.90 56.90 L 2.00 51.60 L 3.50 46.50 L 5.40 41.50 L 7.60 36.70 L 10.20 32.20 L 13.10 27.80 L 19.90 19.90 L 27.80 13.10 L 32.20 10.20 L 36.70 7.60 L 41.50 5.40 L 46.50 3.50 L 51.60 2.00 L 56.90 0.90 L 62.40 0.20 L 68.00 0.00 L 73.60 0.20 L 79.10 0.90 L 84.40 2.00 L 89.50 3.50 L 94.50 5.40 L 99.30 7.60 L 103.80 10.20 L 108.20 13.10 L 116.10 19.90 L 122.90 27.80 L 125.80 32.20 L 128.40 36.70 L 130.60 41.50 L 132.50 46.50 L 134.00 51.60 L 135.10 56.90 L 135.80 62.40 L 136.00 68.00 Z" fill="#ffffff" fill-rule="evenodd" node-id="160" stroke="none" target-height="136" target-width="136" target-x="0" target-y="0"></path></mask><mask height="9.488373" id="mask15" maskUnits="userSpaceOnUse" node-id="164" width="24.044521" x="56.768307" y="56.139534"><path d="M 136.00 68.00 L 135.80 73.60 L 135.10 79.10 L 134.00 84.40 L 132.50 89.50 L 130.60 94.50 L 128.40 99.30 L 125.80 103.80 L 122.90 108.20 L 116.10 116.10 L 108.20 122.90 L 103.80 125.80 L 99.30 128.40 L 94.50 130.60 L 89.50 132.50 L 84.40 134.00 L 79.10 135.10 L 73.60 135.80 L 68.00 136.00 L 62.40 135.80 L 56.90 135.10 L 51.60 134.00 L 46.50 132.50 L 41.50 130.60 L 36.70 128.40 L 32.20 125.80 L 27.80 122.90 L 19.90 116.10 L 13.10 108.20 L 10.20 103.80 L 7.60 99.30 L 5.40 94.50 L 3.50 89.50 L 2.00 84.40 L 0.90 79.10 L 0.20 73.60 L 0.00 68.00 L 0.20 62.40 L 0.90 56.90 L 2.00 51.60 L 3.50 46.50 L 5.40 41.50 L 7.60 36.70 L 10.20 32.20 L 13.10 27.80 L 19.90 19.90 L 27.80 13.10 L 32.20 10.20 L 36.70 7.60 L 41.50 5.40 L 46.50 3.50 L 51.60 2.00 L 56.90 0.90 L 62.40 0.20 L 68.00 0.00 L 73.60 0.20 L 79.10 0.90 L 84.40 2.00 L 89.50 3.50 L 94.50 5.40 L 99.30 7.60 L 103.80 10.20 L 108.20 13.10 L 116.10 19.90 L 122.90 27.80 L 125.80 32.20 L 128.40 36.70 L 130.60 41.50 L 132.50 46.50 L 134.00 51.60 L 135.10 56.90 L 135.80 62.40 L 136.00 68.00 Z" fill="#ffffff" fill-rule="evenodd" node-id="168" stroke="none" target-height="136" target-width="136" target-x="0" target-y="0"></path></mask><mask height="4.6744194" id="mask16" maskUnits="userSpaceOnUse" node-id="172" width="18.44785" x="59.566433" y="60.552326"><path d="M 136.00 68.00 L 135.80 73.60 L 135.10 79.10 L 134.00 84.40 L 132.50 89.50 L 130.60 94.50 L 128.40 99.30 L 125.80 103.80 L 122.90 108.20 L 116.10 116.10 L 108.20 122.90 L 103.80 125.80 L 99.30 128.40 L 94.50 130.60 L 89.50 132.50 L 84.40 134.00 L 79.10 135.10 L 73.60 135.80 L 68.00 136.00 L 62.40 135.80 L 56.90 135.10 L 51.60 134.00 L 46.50 132.50 L 41.50 130.60 L 36.70 128.40 L 32.20 125.80 L 27.80 122.90 L 19.90 116.10 L 13.10 108.20 L 10.20 103.80 L 7.60 99.30 L 5.40 94.50 L 3.50 89.50 L 2.00 84.40 L 0.90 79.10 L 0.20 73.60 L 0.00 68.00 L 0.20 62.40 L 0.90 56.90 L 2.00 51.60 L 3.50 46.50 L 5.40 41.50 L 7.60 36.70 L 10.20 32.20 L 13.10 27.80 L 19.90 19.90 L 27.80 13.10 L 32.20 10.20 L 36.70 7.60 L 41.50 5.40 L 46.50 3.50 L 51.60 2.00 L 56.90 0.90 L 62.40 0.20 L 68.00 0.00 L 73.60 0.20 L 79.10 0.90 L 84.40 2.00 L 89.50 3.50 L 94.50 5.40 L 99.30 7.60 L 103.80 10.20 L 108.20 13.10 L 116.10 19.90 L 122.90 27.80 L 125.80 32.20 L 128.40 36.70 L 130.60 41.50 L 132.50 46.50 L 134.00 51.60 L 135.10 56.90 L 135.80 62.40 L 136.00 68.00 Z" fill="#ffffff" fill-rule="evenodd" node-id="176" stroke="none" target-height="136" target-width="136" target-x="0" target-y="0"></path></mask><mask height="26.999065" id="mask17" maskUnits="userSpaceOnUse" node-id="180" width="50.399998" x="42.8" y="8.250858"><path d="M 136.00 68.00 L 135.80 73.60 L 135.10 79.10 L 134.00 84.40 L 132.50 89.50 L 130.60 94.50 L 128.40 99.30 L 125.80 103.80 L 122.90 108.20 L 116.10 116.10 L 108.20 122.90 L 103.80 125.80 L 99.30 128.40 L 94.50 130.60 L 89.50 132.50 L 84.40 134.00 L 79.10 135.10 L 73.60 135.80 L 68.00 136.00 L 62.40 135.80 L 56.90 135.10 L 51.60 134.00 L 46.50 132.50 L 41.50 130.60 L 36.70 128.40 L 32.20 125.80 L 27.80 122.90 L 19.90 116.10 L 13.10 108.20 L 10.20 103.80 L 7.60 99.30 L 5.40 94.50 L 3.50 89.50 L 2.00 84.40 L 0.90 79.10 L 0.20 73.60 L 0.00 68.00 L 0.20 62.40 L 0.90 56.90 L 2.00 51.60 L 3.50 46.50 L 5.40 41.50 L 7.60 36.70 L 10.20 32.20 L 13.10 27.80 L 19.90 19.90 L 27.80 13.10 L 32.20 10.20 L 36.70 7.60 L 41.50 5.40 L 46.50 3.50 L 51.60 2.00 L 56.90 0.90 L 62.40 0.20 L 68.00 0.00 L 73.60 0.20 L 79.10 0.90 L 84.40 2.00 L 89.50 3.50 L 94.50 5.40 L 99.30 7.60 L 103.80 10.20 L 108.20 13.10 L 116.10 19.90 L 122.90 27.80 L 125.80 32.20 L 128.40 36.70 L 130.60 41.50 L 132.50 46.50 L 134.00 51.60 L 135.10 56.90 L 135.80 62.40 L 136.00 68.00 Z" fill="#ffffff" fill-rule="evenodd" node-id="184" stroke="none" target-height="136" target-width="136" target-x="0" target-y="0"></path></mask><mask height="26.400002" id="mask18" maskUnits="userSpaceOnUse" node-id="188" width="19.20039" x="58.399967" y="8.8"><path d="M 136.00 68.00 L 135.80 73.60 L 135.10 79.10 L 134.00 84.40 L 132.50 89.50 L 130.60 94.50 L 128.40 99.30 L 125.80 103.80 L 122.90 108.20 L 116.10 116.10 L 108.20 122.90 L 103.80 125.80 L 99.30 128.40 L 94.50 130.60 L 89.50 132.50 L 84.40 134.00 L 79.10 135.10 L 73.60 135.80 L 68.00 136.00 L 62.40 135.80 L 56.90 135.10 L 51.60 134.00 L 46.50 132.50 L 41.50 130.60 L 36.70 128.40 L 32.20 125.80 L 27.80 122.90 L 19.90 116.10 L 13.10 108.20 L 10.20 103.80 L 7.60 99.30 L 5.40 94.50 L 3.50 89.50 L 2.00 84.40 L 0.90 79.10 L 0.20 73.60 L 0.00 68.00 L 0.20 62.40 L 0.90 56.90 L 2.00 51.60 L 3.50 46.50 L 5.40 41.50 L 7.60 36.70 L 10.20 32.20 L 13.10 27.80 L 19.90 19.90 L 27.80 13.10 L 32.20 10.20 L 36.70 7.60 L 41.50 5.40 L 46.50 3.50 L 51.60 2.00 L 56.90 0.90 L 62.40 0.20 L 68.00 0.00 L 73.60 0.20 L 79.10 0.90 L 84.40 2.00 L 89.50 3.50 L 94.50 5.40 L 99.30 7.60 L 103.80 10.20 L 108.20 13.10 L 116.10 19.90 L 122.90 27.80 L 125.80 32.20 L 128.40 36.70 L 130.60 41.50 L 132.50 46.50 L 134.00 51.60 L 135.10 56.90 L 135.80 62.40 L 136.00 68.00 Z" fill="#ffffff" fill-rule="evenodd" node-id="192" stroke="none" target-height="136" target-width="136" target-x="0" target-y="0"></path></mask><mask height="3.6000004" id="mask19" maskUnits="userSpaceOnUse" node-id="196" width="7.199997" x="64.4" y="8.7"><path d="M 136.00 68.00 L 135.80 73.60 L 135.10 79.10 L 134.00 84.40 L 132.50 89.50 L 130.60 94.50 L 128.40 99.30 L 125.80 103.80 L 122.90 108.20 L 116.10 116.10 L 108.20 122.90 L 103.80 125.80 L 99.30 128.40 L 94.50 130.60 L 89.50 132.50 L 84.40 134.00 L 79.10 135.10 L 73.60 135.80 L 68.00 136.00 L 62.40 135.80 L 56.90 135.10 L 51.60 134.00 L 46.50 132.50 L 41.50 130.60 L 36.70 128.40 L 32.20 125.80 L 27.80 122.90 L 19.90 116.10 L 13.10 108.20 L 10.20 103.80 L 7.60 99.30 L 5.40 94.50 L 3.50 89.50 L 2.00 84.40 L 0.90 79.10 L 0.20 73.60 L 0.00 68.00 L 0.20 62.40 L 0.90 56.90 L 2.00 51.60 L 3.50 46.50 L 5.40 41.50 L 7.60 36.70 L 10.20 32.20 L 13.10 27.80 L 19.90 19.90 L 27.80 13.10 L 32.20 10.20 L 36.70 7.60 L 41.50 5.40 L 46.50 3.50 L 51.60 2.00 L 56.90 0.90 L 62.40 0.20 L 68.00 0.00 L 73.60 0.20 L 79.10 0.90 L 84.40 2.00 L 89.50 3.50 L 94.50 5.40 L 99.30 7.60 L 103.80 10.20 L 108.20 13.10 L 116.10 19.90 L 122.90 27.80 L 125.80 32.20 L 128.40 36.70 L 130.60 41.50 L 132.50 46.50 L 134.00 51.60 L 135.10 56.90 L 135.80 62.40 L 136.00 68.00 Z" fill="#ffffff" fill-rule="evenodd" node-id="200" stroke="none" target-height="136" target-width="136" target-x="0" target-y="0"></path></mask><mask height="11.417627" id="mask20" maskUnits="userSpaceOnUse" node-id="204" width="55.200005" x="40.4" y="29.533842"><path d="M 136.00 68.00 L 135.80 73.60 L 135.10 79.10 L 134.00 84.40 L 132.50 89.50 L 130.60 94.50 L 128.40 99.30 L 125.80 103.80 L 122.90 108.20 L 116.10 116.10 L 108.20 122.90 L 103.80 125.80 L 99.30 128.40 L 94.50 130.60 L 89.50 132.50 L 84.40 134.00 L 79.10 135.10 L 73.60 135.80 L 68.00 136.00 L 62.40 135.80 L 56.90 135.10 L 51.60 134.00 L 46.50 132.50 L 41.50 130.60 L 36.70 128.40 L 32.20 125.80 L 27.80 122.90 L 19.90 116.10 L 13.10 108.20 L 10.20 103.80 L 7.60 99.30 L 5.40 94.50 L 3.50 89.50 L 2.00 84.40 L 0.90 79.10 L 0.20 73.60 L 0.00 68.00 L 0.20 62.40 L 0.90 56.90 L 2.00 51.60 L 3.50 46.50 L 5.40 41.50 L 7.60 36.70 L 10.20 32.20 L 13.10 27.80 L 19.90 19.90 L 27.80 13.10 L 32.20 10.20 L 36.70 7.60 L 41.50 5.40 L 46.50 3.50 L 51.60 2.00 L 56.90 0.90 L 62.40 0.20 L 68.00 0.00 L 73.60 0.20 L 79.10 0.90 L 84.40 2.00 L 89.50 3.50 L 94.50 5.40 L 99.30 7.60 L 103.80 10.20 L 108.20 13.10 L 116.10 19.90 L 122.90 27.80 L 125.80 32.20 L 128.40 36.70 L 130.60 41.50 L 132.50 46.50 L 134.00 51.60 L 135.10 56.90 L 135.80 62.40 L 136.00 68.00 Z" fill="#ffffff" fill-rule="evenodd" node-id="208" stroke="none" target-height="136" target-width="136" target-x="0" target-y="0"></path></mask></defs><g node-id="219"><g node-id="220"><g node-id="221"><path d="M 136.00 68.00 L 135.80 73.60 L 135.10 79.10 L 134.00 84.40 L 132.50 89.50 L 130.60 94.50 L 128.40 99.30 L 125.80 103.80 L 122.90 108.20 L 116.10 116.10 L 108.20 122.90 L 103.80 125.80 L 99.30 128.40 L 94.50 130.60 L 89.50 132.50 L 84.40 134.00 L 79.10 135.10 L 73.60 135.80 L 68.00 136.00 L 62.40 135.80 L 56.90 135.10 L 51.60 134.00 L 46.50 132.50 L 41.50 130.60 L 36.70 128.40 L 32.20 125.80 L 27.80 122.90 L 19.90 116.10 L 13.10 108.20 L 10.20 103.80 L 7.60 99.30 L 5.40 94.50 L 3.50 89.50 L 2.00 84.40 L 0.90 79.10 L 0.20 73.60 L 0.00 68.00 L 0.20 62.40 L 0.90 56.90 L 2.00 51.60 L 3.50 46.50 L 5.40 41.50 L 7.60 36.70 L 10.20 32.20 L 13.10 27.80 L 19.90 19.90 L 27.80 13.10 L 32.20 10.20 L 36.70 7.60 L 41.50 5.40 L 46.50 3.50 L 51.60 2.00 L 56.90 0.90 L 62.40 0.20 L 68.00 0.00 L 73.60 0.20 L 79.10 0.90 L 84.40 2.00 L 89.50 3.50 L 94.50 5.40 L 99.30 7.60 L 103.80 10.20 L 108.20 13.10 L 116.10 19.90 L 122.90 27.80 L 125.80 32.20 L 128.40 36.70 L 130.60 41.50 L 132.50 46.50 L 134.00 51.60 L 135.10 56.90 L 135.80 62.40 L 136.00 68.00 Z" fill="#e1e8fa" fill-rule="evenodd" group-id="1,2,3" node-id="217" stroke="none" target-height="136" target-width="136" target-x="0" target-y="0"></path></g><g node-id="222"><path d="M 57.90 62.70 L 77.20 62.70 L 77.20 81.80 L 57.90 81.80 Z" fill="#f3b996" fill-rule="evenodd" group-id="1,2,4" id="Rectangle" node-id="15" stroke="none" target-height="19.100002" target-width="19.299995" target-x="57.9" target-y="62.7"></path></g><g node-id="223"><path d="M 115.00 84.00 L 116.60 84.30 L 117.80 85.20 L 118.70 86.40 L 119.00 88.00 L 119.00 134.00 L 118.70 135.60 L 117.80 136.80 L 116.60 137.70 L 115.00 138.00 L 107.00 138.00 L 105.40 137.70 L 104.20 136.80 L 103.30 135.60 L 103.00 134.00 L 103.00 88.00 L 103.30 86.40 L 104.20 85.20 L 105.40 84.30 L 107.00 84.00 L 115.00 84.00 Z M 31.00 84.00 L 32.60 84.30 L 33.80 85.20 L 34.70 86.40 L 35.00 88.00 L 35.00 134.00 L 34.70 135.60 L 33.80 136.80 L 32.60 137.70 L 31.00 138.00 L 23.00 138.00 L 21.40 137.70 L 20.20 136.80 L 19.30 135.60 L 19.00 134.00 L 19.00 88.00 L 19.30 86.40 L 20.20 85.20 L 21.40 84.30 L 23.00 84.00 L 31.00 84.00 Z" fill="#3e70ab" fill-rule="evenodd" group-id="1,2,5" id="形状" node-id="16" stroke="none" target-height="54" target-width="100" target-x="19" target-y="84"></path></g><g node-id="224"><path d="M 57.70 75.40 L 65.80 82.00 L 70.30 82.00 L 77.20 75.40 L 77.90 75.10 L 78.60 75.40 L 86.20 81.80 L 86.10 82.00 L 104.00 82.00 L 105.60 82.30 L 106.80 83.20 L 107.70 84.40 L 108.00 86.00 L 108.00 134.00 L 107.70 135.60 L 106.80 136.80 L 105.60 137.70 L 104.00 138.00 L 34.00 138.00 L 32.40 137.70 L 31.20 136.80 L 30.30 135.60 L 30.00 134.00 L 30.00 86.00 L 30.30 84.40 L 31.20 83.20 L 32.40 82.30 L 34.00 82.00 L 49.90 82.00 L 49.80 81.80 L 56.40 75.40 L 57.00 75.10 L 57.70 75.40 Z" fill="#3068ac" fill-rule="evenodd" group-id="1,2,6" id="路径" node-id="17" stroke="none" target-height="62.9" target-width="78" target-x="30" target-y="75.1"></path></g><g node-id="225"><path d="M 30.00 107.00 L 108.00 107.00 L 108.00 136.00 L 30.00 136.00 Z" fill="#bbcbde" fill-rule="evenodd" group-id="1,2,7" id="矩形" node-id="18" stroke="none" target-height="29" target-width="78" target-x="30" target-y="107"></path></g><g node-id="226"><path d="M 86.00 100.00 L 103.00 100.00 L 103.00 103.00 L 86.00 103.00 Z" fill="#d8d8d8" fill-rule="evenodd" group-id="1,2,8" id="矩形" node-id="19" stroke="none" target-height="3" target-width="17" target-x="86" target-y="100"></path></g><g node-id="227"><path d="M 71.00 84.00 L 72.00 84.00 L 72.00 138.00 L 71.00 138.00 Z" fill="#ffffff" fill-opacity="0.2" fill-rule="evenodd" group-id="1,2,9" id="矩形备份-3" node-id="20" stroke="none" target-height="54" target-width="1" target-x="71" target-y="84"></path></g><g node-id="228"><path d="M 57.70 75.40 L 65.80 81.00 L 70.30 81.00 L 77.90 75.10 L 78.60 75.40 L 86.20 81.80 L 82.50 85.50 L 79.50 87.90 L 77.00 89.30 L 74.90 90.10 L 73.10 90.40 L 72.50 90.10 L 69.50 83.20 L 68.80 82.10 L 68.00 81.80 L 67.20 82.20 L 66.30 83.30 L 65.00 86.50 L 65.00 138.00 L 64.00 138.00 L 64.00 89.10 L 63.00 90.40 L 60.50 90.10 L 58.10 89.50 L 55.90 88.40 L 53.80 86.80 L 51.80 84.70 L 49.80 81.80 L 56.40 75.40 L 57.00 75.10 L 57.70 75.40 Z" fill="#2858a6" fill-rule="evenodd" group-id="1,2,10" id="路径" node-id="21" stroke="none" target-height="62.9" target-width="36.399998" target-x="49.8" target-y="75.1"></path></g><g node-id="229"><path d="M 70.00 89.00 L 69.80 89.80 L 68.80 90.80 L 67.20 90.80 L 66.20 89.80 L 66.20 88.20 L 67.20 87.20 L 68.80 87.20 L 69.80 88.20 L 70.00 89.00 Z" fill="#bbcbdd" fill-rule="evenodd" group-id="1,2,11" id="椭圆形备份-2" node-id="22" stroke="none" target-height="3.600006" target-width="3.800003" target-x="66.2" target-y="87.2"></path></g><g node-id="230"><path d="M 70.00 121.00 L 69.80 121.80 L 68.80 122.80 L 67.20 122.80 L 66.20 121.80 L 66.20 120.20 L 67.20 119.20 L 68.80 119.20 L 69.80 120.20 L 70.00 121.00 Z" fill="#3c5b90" fill-rule="evenodd" group-id="1,2,12" id="椭圆形备份-3" node-id="23" stroke="none" target-height="3.600006" target-width="3.800003" target-x="66.2" target-y="119.2"></path></g><g node-id="231"><path d="M 52.20 33.60 L 84.20 33.60 L 85.70 33.90 L 87.00 34.80 L 87.80 36.10 L 88.20 37.60 L 88.20 41.60 L 87.80 43.20 L 87.00 44.50 L 85.70 45.30 L 84.20 45.60 L 52.20 45.60 L 50.60 45.30 L 49.30 44.50 L 48.50 43.20 L 48.20 41.60 L 48.20 37.60 L 48.50 36.10 L 49.30 34.80 L 50.60 33.90 L 52.20 33.60 Z" fill="url(#linearGradient-3)" fill-rule="evenodd" group-id="1,2,13" id="Rectangle-Copy-5备份" node-id="24" stroke="none" target-height="12" target-width="39.999996" target-x="48.2" target-y="33.6"></path></g><g node-id="232"><path d="M 51.80 27.50 L 77.20 27.50 L 78.70 27.80 L 80.00 28.70 L 80.80 29.90 L 81.20 31.50 L 81.20 41.60 L 80.80 43.20 L 80.00 44.50 L 78.70 45.30 L 77.20 45.60 L 51.80 45.60 L 50.20 45.30 L 48.90 44.50 L 48.10 43.20 L 47.80 41.60 L 47.80 31.50 L 48.10 29.90 L 48.90 28.70 L 50.20 27.80 L 51.80 27.50 Z" fill="#282628" fill-rule="evenodd" group-id="1,2,14" id="Rectangle" node-id="25" stroke="none" target-height="18.099998" target-width="33.399998" target-x="47.8" target-y="27.5"></path></g><g node-id="233"><path d="M 52.80 38.60 L 52.80 48.70 L 46.70 48.70 L 45.10 48.30 L 43.90 47.50 L 43.00 46.20 L 42.70 44.70 L 43.00 41.00 L 43.90 39.80 L 45.10 38.90 L 46.70 38.60 L 52.80 38.60 Z M 89.30 38.60 L 90.80 38.90 L 92.10 39.70 L 92.90 40.90 L 93.30 42.60 L 93.00 46.20 L 92.20 47.40 L 91.00 48.30 L 89.30 48.70 L 83.20 48.70 L 83.20 38.60 L 89.30 38.60 Z" fill="#f6be9d" fill-rule="evenodd" group-id="1,2,15" id="形状" node-id="26" stroke="none" target-height="10.100002" target-width="50.600002" target-x="42.7" target-y="38.6"></path></g><g node-id="234"><path d="M 85.30 38.60 L 79.10 38.60 L 79.10 48.70 L 85.30 48.70 L 86.80 48.30 L 88.10 47.50 L 88.90 46.20 L 89.30 44.70 L 88.90 41.00 L 88.10 39.80 L 86.80 38.90 L 85.30 38.60 Z" fill="#e9925f" fill-rule="evenodd" group-id="1,2,16" id="Rectangle-Copy-14" node-id="27" stroke="none" target-height="10.100002" target-width="10.200005" target-x="79.1" target-y="38.6"></path></g><g node-id="235"><path d="M 50.70 38.60 L 56.90 38.60 L 56.90 48.70 L 50.70 48.70 L 49.20 48.30 L 47.90 47.50 L 47.10 46.20 L 46.70 44.70 L 47.10 41.00 L 47.90 39.80 L 49.20 38.90 L 50.70 38.60 Z" fill="#e9925f" fill-rule="evenodd" group-id="1,2,17" id="Rectangle-Copy-13" node-id="28" stroke="none" target-height="10.100002" target-width="10.200001" target-x="46.7" target-y="38.6"></path></g><g node-id="236"><path d="M 66.00 68.80 L 64.00 68.40 L 61.80 67.30 L 57.40 64.00 L 52.40 58.60 L 51.30 56.30 L 50.80 51.70 L 50.80 24.60 L 51.10 23.00 L 52.00 21.70 L 53.30 20.90 L 54.80 20.50 L 81.20 20.50 L 82.70 20.80 L 84.00 21.70 L 84.80 22.90 L 85.20 24.40 L 85.20 51.70 L 85.10 54.40 L 84.20 57.70 L 82.40 60.20 L 78.90 63.70 L 74.70 67.00 L 72.50 68.20 L 70.50 68.80 L 66.00 68.80 Z" fill="#ffd0b6" fill-rule="evenodd" group-id="1,2,18" id="Path-Copy-2" node-id="29" stroke="none" target-height="48.300003" target-width="34.399998" target-x="50.8" target-y="20.5"></path></g><g node-id="237"><path d="M 59.80 56.90 L 77.80 56.90 L 78.50 57.20 L 78.80 58.20 L 78.00 60.20 L 76.80 61.90 L 75.40 63.10 L 73.70 64.00 L 71.50 64.60 L 68.80 64.80 L 66.10 64.60 L 63.90 64.00 L 62.10 63.10 L 60.70 61.90 L 59.60 60.20 L 58.80 58.20 L 58.90 57.40 L 59.80 56.90 Z" fill="#ff9090" fill-rule="evenodd" group-id="1,2,19" id="Rectangle" node-id="30" stroke="none" target-height="7.9000015" target-width="20.000004" target-x="58.8" target-y="56.9"></path></g><g node-id="238"><path d="M 68.80 60.90 L 72.20 61.10 L 76.50 62.20 L 73.40 64.10 L 68.80 64.80 L 64.20 64.10 L 61.10 62.20 L 65.40 61.10 L 68.80 60.90 Z" fill="#e64646" fill-rule="evenodd" group-id="1,2,20" id="路径" node-id="31" stroke="none" target-height="3.9000015" target-width="15.400002" target-x="61.1" target-y="60.9"></path></g><g node-id="239"><path d="M 65.60 10.50 L 70.40 10.50 L 73.80 10.90 L 76.90 11.80 L 79.80 13.30 L 82.40 15.20 L 84.60 17.40 L 86.50 20.10 L 87.80 23.00 L 88.70 26.10 L 89.00 33.00 L 47.00 33.00 L 47.30 26.10 L 48.20 23.00 L 49.50 20.10 L 51.40 17.40 L 53.60 15.20 L 56.20 13.30 L 59.10 11.80 L 62.20 10.90 L 65.60 10.50 Z" fill="#386aa9" fill-rule="evenodd" group-id="1,2,21" id="矩形备份-2" node-id="32" stroke="none" target-height="22.5" target-width="42" target-x="47" target-y="10.5"></path></g><g node-id="240"><path d="M 66.00 11.00 L 66.00 11.30 L 64.40 12.20 L 63.20 13.40 L 62.40 14.90 L 62.00 16.70 L 62.00 33.00 L 60.00 33.00 L 60.00 17.00 L 60.20 15.40 L 60.80 14.00 L 62.90 11.90 L 64.20 11.30 L 66.00 11.00 Z M 70.00 11.00 L 71.80 11.30 L 73.10 11.90 L 75.10 13.90 L 75.70 15.20 L 76.00 17.00 L 76.00 32.00 L 74.00 32.00 L 74.00 17.00 L 73.70 15.00 L 72.90 13.50 L 71.70 12.30 L 70.00 11.30 L 70.00 11.00 Z" fill="#bbcbde" fill-rule="evenodd" group-id="1,2,22" id="形状" node-id="33" stroke="none" target-height="22" target-width="16" target-x="60" target-y="11"></path></g><g node-id="241"><path d="M 66.50 9.00 L 69.50 9.00 L 70.60 9.40 L 71.00 10.50 L 70.90 11.10 L 70.10 11.90 L 66.50 12.00 L 65.40 11.60 L 65.00 10.50 L 65.10 9.90 L 65.90 9.10 L 66.50 9.00 Z" fill="#bbcadd" fill-rule="evenodd" group-id="1,2,23" id="矩形" node-id="34" stroke="none" target-height="3" target-width="6" target-x="65" target-y="9"></path></g><path d="M 46.70 32.70 L 56.60 31.40 L 68.00 30.50 L 79.40 31.40 L 89.30 32.70 L 90.50 33.40 L 91.00 34.70 L 90.80 38.80 L 89.80 39.80 L 85.20 40.00 L 83.70 39.70 L 76.40 35.20 L 74.00 34.10 L 71.30 33.30 L 68.20 33.00 L 65.00 33.30 L 62.30 34.10 L 59.90 35.20 L 52.40 39.70 L 50.80 40.00 L 47.00 40.00 L 45.60 39.40 L 45.00 38.00 L 45.10 34.00 L 46.00 33.00 L 46.70 32.70 Z" fill="#bbcadd" fill-rule="evenodd" group-id="1,2,24" id="矩形" node-id="35" stroke="none" target-height="9.5" target-width="46" target-x="45" target-y="30.5"></path></g></g></svg>